# xmcd
#
# Track frame offsets: 
#        150
#        19572
#        34730
#        48542
#        61927
#        76362
#        89607
#        102290
#        116130
#        126670
#        138692
#        153752
#        166055
#
# Disc length: 2393 seconds
#
# Revision: 1
# Processed by: cddbd v1.5.2PL0 Copyright (c) Steve Scherf et al.
# Submitted via: ExactAudioCopy v0.99pb5
#
DISCID=ac09570d
DTITLE=Jerry's Country Band - Jerry's Country Band
DYEAR=1995
DGENRE=Country
TTITLE0=Es Amor
TTITLE1=El Camionero
TTITLE2=Solo
TTITLE3=No Sé Qué Pasa
TTITLE4=Te Necesito
TTITLE5=Bailaré
TTITLE6=El Amor Me Ha Llegado
TTITLE7=Consejos
TTITLE8=El Tic Del Reloj
TTITLE9=Solo Cariño
TTITLE10=Sin Su Amor
TTITLE11=Hey Dime
TTITLE12=Mi Selena
EXTD=
EXTT0=
EXTT1=
EXTT2=
EXTT3=
EXTT4=
EXTT5=
EXTT6=
EXTT7=
EXTT8=
EXTT9=
EXTT10=
EXTT11=
EXTT12=
PLAYORDER=
